<?xml version="1.0" encoding="utf-8"?><!-- Generator: Adobe Illustrator 15.0.0, SVG Export Plug-In . SVG Version: 6.00 Build 0)  --><!DOCTYPE svg PUBLIC "-//W3C//DTD SVG 1.1//EN" "http://www.w3.org/Graphics/SVG/1.1/DTD/svg11.dtd"><svg fill="#228BE6" xmlns="http://www.w3.org/2000/svg" xmlns:xlink="http://www.w3.org/1999/xlink" viewBox="0 0 50 50" width="50px" height="50px"><path d="M45.048,15.083c-0.731-2.2-1.96-5.883-7.748-5.883c-3.62,0-5.792,2.532-7.229,4.208c-0.307,0.359-0.705,0.824-0.961,1.046C27.938,13.591,26.491,13.1,25.1,13.1c-1.463,0-2.999,0.528-4.04,1.363c-0.263-0.22-0.683-0.712-1.004-1.089C18.639,11.711,16.498,9.2,12.9,9.2c-6.034,0-7.157,3.851-7.75,5.89c-0.754,2.315-1.974,6.954-2.958,10.816C4.293,24.1,7.018,23,10,23c6.617,0,12,5.383,12,12c0,0.499-0.04,0.988-0.1,1.473c0.021,0.008,0.042,0.017,0.064,0.023c0.102,0.036,0.209,0.068,0.316,0.102c0.113,0.035,0.226,0.071,0.344,0.104c0.128,0.033,0.263,0.063,0.398,0.091c0.109,0.022,0.215,0.049,0.328,0.067c0.163,0.029,0.334,0.049,0.506,0.067c0.096,0.013,0.187,0.027,0.286,0.036C24.418,36.986,24.703,37,25,37s0.582-0.014,0.857-0.037c0.097-0.009,0.188-0.023,0.281-0.035c0.174-0.021,0.348-0.039,0.512-0.068c0.111-0.02,0.216-0.045,0.322-0.067c0.137-0.028,0.273-0.058,0.403-0.091c0.116-0.031,0.228-0.066,0.339-0.102c0.109-0.033,0.219-0.066,0.322-0.104c0.021-0.009,0.041-0.017,0.063-0.022C28.04,35.988,28,35.499,28,35c0-6.617,5.383-12,12-12c3.086,0,5.895,1.181,8.023,3.102C47.016,22.203,45.764,17.446,45.048,15.083z M25,31c-1.103,0-2-0.896-2-2s0.897-2,2-2c1.104,0,2,0.896,2,2S26.104,31,25,31z"/><path d="M10,25c-3.97,0-7.39,2.318-9.004,5.672c-0.001,0.005-0.003,0.012-0.004,0.016c-0.305,0.636-0.544,1.307-0.713,2.004c-0.007,0.031-0.016,0.062-0.023,0.093c-0.07,0.303-0.121,0.612-0.162,0.927c-0.008,0.063-0.021,0.121-0.028,0.184C0.023,34.257,0,34.626,0,35c0,5.514,4.486,10,10,10c0.339,0,0.674-0.018,1.005-0.051c0.167-0.018,0.328-0.049,0.492-0.073c0.159-0.024,0.321-0.041,0.478-0.073c0.224-0.045,0.441-0.104,0.66-0.164c0.09-0.024,0.183-0.043,0.272-0.07c0.257-0.078,0.508-0.172,0.756-0.271c0.044-0.019,0.09-0.03,0.135-0.049c0.279-0.115,0.551-0.243,0.816-0.382c0.01-0.006,0.02-0.01,0.03-0.016c3.048-1.608,5.167-4.75,5.333-8.393C19.984,35.307,20,35.154,20,35C20,29.477,15.523,25,10,25z M10,41c-3.364,0-6-2.636-6-6c0-0.553,0.448-1,1-1s1,0.447,1,1c0,2.243,1.757,4,4,4c0.552,0,1,0.447,1,1S10.552,41,10,41z"/><path d="M49.912,33.743c-0.021-0.179-0.051-0.356-0.082-0.532c-0.023-0.141-0.053-0.277-0.083-0.414c-0.033-0.148-0.073-0.294-0.113-0.439c-0.038-0.144-0.075-0.289-0.122-0.43C48.212,27.914,44.439,25,40,25c-5.514,0-10,4.486-10,10c0,0.154,0.018,0.305,0.023,0.457l0,0c0.074,1.652,0.55,3.199,1.334,4.55c0.006,0.011,0.012,0.019,0.018,0.028c0.15,0.258,0.313,0.509,0.484,0.752c0.015,0.02,0.029,0.037,0.043,0.056c0.166,0.231,0.342,0.455,0.525,0.671c0.033,0.037,0.067,0.073,0.102,0.11c0.172,0.192,0.348,0.382,0.533,0.562c0.039,0.039,0.082,0.074,0.123,0.111c0,0.001,0,0.001,0.002,0.002c0.185,0.174,0.373,0.342,0.571,0.501c0.068,0.056,0.142,0.104,0.212,0.159c0.178,0.137,0.355,0.27,0.543,0.393c0.092,0.061,0.188,0.113,0.281,0.172c0.171,0.104,0.342,0.209,0.52,0.306c0.121,0.063,0.248,0.12,0.375,0.181c0.16,0.078,0.319,0.159,0.483,0.227c0.155,0.064,0.316,0.117,0.476,0.176c0.143,0.052,0.283,0.107,0.429,0.15c0.162,0.051,0.331,0.088,0.497,0.129c0.146,0.037,0.293,0.08,0.443,0.11c0.109,0.022,0.224,0.036,0.336,0.052c0.113,0.02,0.229,0.037,0.344,0.054c0.098,0.015,0.193,0.032,0.293,0.044C39.322,44.982,39.659,45,40,45c5.514,0,10-4.486,10-10c0-0.311-0.02-0.617-0.047-0.92C49.941,33.967,49.927,33.855,49.912,33.743z M41,41c-3.363,0-6-2.636-6-6c0-0.553,0.447-1,1-1s1,0.447,1,1c0,2.243,1.757,4,4,4c0.553,0,1,0.447,1,1S41.553,41,41,41z"/><path d="M12.9,7.2c3.225,0,5.47,1.553,7.059,3.104C19.624,7.28,17.128,5,14,5c-2.15,0-4.05,1.132-5.092,2.835C10.01,7.445,11.316,7.2,12.9,7.2z"/><path d="M37.3,7.2c1.468,0,2.697,0.217,3.746,0.568C39.995,6.104,38.121,5,36,5c-3.189,0-5.723,2.372-5.975,5.487C31.639,8.873,33.949,7.2,37.3,7.2z"/></svg>